<svg width="91" height="26" viewBox="0 0 91 26" fill="none" xmlns="http://www.w3.org/2000/svg">
<path d="M6.58497 26C10.2217 26 13.1699 23.0899 13.1699 19.5C13.1699 15.9101 10.2217 13 6.58497 13C2.94819 13 0 15.9101 0 19.5C0 23.0899 2.94819 26 6.58497 26Z" fill="#4D96A9"/>
<path d="M19.7549 13C23.3917 13 26.3399 10.0899 26.3399 6.5C26.3399 2.91015 23.3917 0 19.7549 0C16.1181 0 13.1699 2.91015 13.1699 6.5C13.1699 10.0899 16.1181 13 19.7549 13Z" fill="#7948B1"/>
<path d="M36.112 22.208C36.3147 22.4427 36.416 22.688 36.416 22.944C36.416 23.2533 36.2933 23.5253 36.048 23.76C35.8133 23.984 35.5413 24.096 35.232 24.096C34.912 24.096 34.64 23.9627 34.416 23.696L31.408 20.016L28.368 23.696C28.1333 23.9627 27.8613 24.096 27.552 24.096C27.2533 24.096 26.9813 23.984 26.736 23.76C26.5013 23.5253 26.384 23.2533 26.384 22.944C26.384 22.6773 26.48 22.432 26.672 22.208L29.952 18.304L26.784 14.512C26.5813 14.2773 26.48 14.032 26.48 13.776C26.48 13.4667 26.5973 13.2 26.832 12.976C27.0773 12.7413 27.3493 12.624 27.648 12.624C27.968 12.624 28.2453 12.7627 28.48 13.04L31.408 16.576L34.304 13.04C34.5387 12.7627 34.816 12.624 35.136 12.624C35.4347 12.624 35.7013 12.7413 35.936 12.976C36.1813 13.2 36.304 13.4667 36.304 13.776C36.304 14.0427 36.208 14.288 36.016 14.512L32.848 18.304L36.112 22.208ZM44.2946 24.144C43.1853 24.144 42.2146 23.9093 41.3826 23.44C40.5506 22.9707 39.9106 22.2987 39.4626 21.424C39.0146 20.5493 38.7906 19.5253 38.7906 18.352C38.7906 17.1787 39.0146 16.16 39.4626 15.296C39.9106 14.4213 40.5506 13.7493 41.3826 13.28C42.2146 12.8107 43.1853 12.576 44.2946 12.576C45.692 12.576 46.8973 12.96 47.9106 13.728C48.0706 13.856 48.1826 13.984 48.2466 14.112C48.3106 14.24 48.3426 14.4 48.3426 14.592C48.3426 14.8693 48.2626 15.1093 48.1026 15.312C47.9533 15.504 47.7666 15.6 47.5426 15.6C47.3933 15.6 47.26 15.584 47.1426 15.552C47.036 15.5093 46.9133 15.44 46.7746 15.344C46.348 15.0667 45.9533 14.8693 45.5906 14.752C45.228 14.624 44.8386 14.56 44.4226 14.56C43.3986 14.56 42.6253 14.88 42.1026 15.52C41.5906 16.1493 41.3346 17.0933 41.3346 18.352C41.3346 20.8907 42.364 22.16 44.4226 22.16C44.8173 22.16 45.1906 22.1013 45.5426 21.984C45.8946 21.856 46.3053 21.6533 46.7746 21.376C46.9346 21.28 47.068 21.216 47.1746 21.184C47.2813 21.1413 47.404 21.12 47.5426 21.12C47.7666 21.12 47.9533 21.2213 48.1026 21.424C48.2626 21.616 48.3426 21.8507 48.3426 22.128C48.3426 22.32 48.3053 22.4853 48.2306 22.624C48.1666 22.752 48.06 22.8747 47.9106 22.992C46.8973 23.76 45.692 24.144 44.2946 24.144ZM56.504 24.144C55.384 24.144 54.408 23.9093 53.576 23.44C52.7547 22.96 52.12 22.288 51.672 21.424C51.224 20.5493 51 19.5253 51 18.352C51 17.1787 51.224 16.16 51.672 15.296C52.12 14.4213 52.7547 13.7493 53.576 13.28C54.408 12.8107 55.384 12.576 56.504 12.576C57.624 12.576 58.5947 12.8107 59.416 13.28C60.248 13.7493 60.888 14.4213 61.336 15.296C61.784 16.16 62.008 17.1787 62.008 18.352C62.008 19.5253 61.784 20.5493 61.336 21.424C60.888 22.288 60.248 22.96 59.416 23.44C58.5947 23.9093 57.624 24.144 56.504 24.144ZM56.504 22.208C57.4427 22.208 58.1787 21.8773 58.712 21.216C59.256 20.5547 59.528 19.6 59.528 18.352C59.528 17.104 59.2613 16.1547 58.728 15.504C58.1947 14.8427 57.4533 14.512 56.504 14.512C55.5547 14.512 54.8133 14.8427 54.28 15.504C53.7573 16.1547 53.496 17.104 53.496 18.352C53.496 19.6 53.7627 20.5547 54.296 21.216C54.8293 21.8773 55.5653 22.208 56.504 22.208ZM70.6977 24.144C69.5777 24.144 68.6017 23.9093 67.7697 23.44C66.9484 22.96 66.3137 22.288 65.8657 21.424C65.4177 20.5493 65.1937 19.5253 65.1937 18.352C65.1937 17.1787 65.4177 16.16 65.8657 15.296C66.3137 14.4213 66.9484 13.7493 67.7697 13.28C68.6017 12.8107 69.5777 12.576 70.6977 12.576C71.8177 12.576 72.7884 12.8107 73.6097 13.28C74.4417 13.7493 75.0817 14.4213 75.5297 15.296C75.9777 16.16 76.2017 17.1787 76.2017 18.352C76.2017 19.5253 75.9777 20.5493 75.5297 21.424C75.0817 22.288 74.4417 22.96 73.6097 23.44C72.7884 23.9093 71.8177 24.144 70.6977 24.144ZM70.6977 22.208C71.6364 22.208 72.3724 21.8773 72.9057 21.216C73.4497 20.5547 73.7217 19.6 73.7217 18.352C73.7217 17.104 73.4551 16.1547 72.9218 15.504C72.3884 14.8427 71.6471 14.512 70.6977 14.512C69.7484 14.512 69.0071 14.8427 68.4737 15.504C67.9511 16.1547 67.6897 17.104 67.6897 18.352C67.6897 19.6 67.9564 20.5547 68.4897 21.216C69.0231 21.8773 69.7591 22.208 70.6977 22.208ZM80.8755 24C80.5022 24 80.2142 23.8987 80.0115 23.696C79.8088 23.4933 79.7075 23.2053 79.7075 22.832V13.872C79.7075 13.4987 79.8195 13.2 80.0435 12.976C80.2675 12.752 80.5715 12.64 80.9555 12.64C81.3395 12.64 81.6435 12.752 81.8675 12.976C82.0915 13.2 82.2035 13.4987 82.2035 13.872V21.968H86.2995C87.0782 21.968 87.4675 22.3093 87.4675 22.992C87.4675 23.664 87.0782 24 86.2995 24H80.8755Z" fill="#504D4D"/>
</svg>
